<svg width="301" height="295" viewBox="0 0 301 295" fill="none" xmlns="http://www.w3.org/2000/svg">
<rect width="301" height="295" fill="#F2F2F2"/>
<g clip-path="url(#clip0_321_36)">
<path d="M217.422 138.124C224.214 134.087 231.538 131.022 239.181 129.017C246.285 127.19 253.585 126.233 260.919 126.169H261.619C268.759 126.199 275.87 127.102 282.791 128.856L282.791 128.856L282.799 128.858C290.434 130.664 297.762 133.577 304.553 137.506L304.559 137.509C309.842 140.476 314.802 143.987 319.358 147.983C320.838 149.355 322.211 150.675 323.587 151.997C324.529 152.923 325.418 153.901 326.25 154.926L326.261 154.94L326.273 154.953C330.479 159.444 334.147 164.41 337.203 169.749L337.206 169.755C341.226 176.557 344.291 183.88 346.314 191.517C348.175 198.592 349.194 205.862 349.352 213.176V300.2H305.439V213.171V213.17C305.427 205.394 303.342 197.762 299.4 191.06C297.519 187.701 295.182 184.62 292.455 181.902C289.751 179.201 286.711 176.858 283.409 174.933C276.659 170.987 268.979 168.911 261.16 168.92C253.386 168.923 245.753 170.999 239.048 174.932C232.33 178.764 226.768 184.335 222.948 191.059C219.006 197.762 216.921 205.394 216.909 213.17V213.171V300.2H174.05V213.171C174.047 205.397 171.972 197.765 168.039 191.061C166.157 187.696 163.81 184.613 161.068 181.903C158.377 179.169 155.347 176.792 152.052 174.828L152.052 174.828L152.045 174.823C145.314 170.965 137.693 168.93 129.935 168.92H129.934C122.167 168.927 114.536 170.962 107.797 174.823L107.794 174.825C101.094 178.727 95.5411 184.326 91.6958 191.058C87.7527 197.761 85.6679 205.394 85.6562 213.17V213.171V300.2H41.5V213.173C41.5625 205.838 42.519 198.538 44.3485 191.434C46.348 183.79 49.4136 176.465 53.4551 169.676L53.4552 169.676L53.4585 169.67C56.5606 164.298 60.2641 159.297 64.4976 154.763L64.5057 154.754L64.5134 154.745C66.6124 152.271 68.9245 149.986 71.4232 147.916L71.4312 147.909L71.439 147.902C75.9575 143.829 80.9217 140.279 86.2373 137.321L86.2384 137.32C93.0797 133.489 100.398 130.58 108.002 128.668C114.904 127.023 121.974 126.184 129.07 126.169H129.77C137.105 126.233 144.405 127.19 151.509 129.017C159.153 131.017 166.478 134.082 173.268 138.124L173.27 138.126C178.057 140.935 182.554 144.209 186.698 147.901C188.178 149.273 189.551 150.592 190.927 151.914L190.931 151.918C192.069 153.011 193.169 154.253 194.278 155.506C194.495 155.751 194.713 155.996 194.931 156.241L195.317 156.674L195.688 156.228C198.197 153.215 200.97 150.432 203.976 147.914L203.982 147.909L203.988 147.903C208.12 144.195 212.619 140.919 217.418 138.127L217.422 138.124Z" fill="white" stroke="white"/>
<path d="M108.299 95.1912L108.295 95.1878C104.213 91.6113 101.141 87.0261 99.3856 81.8904L99.3857 81.8904L99.3819 81.88C98.1321 78.4716 97.4841 74.8719 97.4668 71.2416C97.4684 67.5488 98.1167 63.8847 99.3822 60.4155L99.3823 60.4155L99.3851 60.4073C101.156 55.2783 104.226 50.696 108.296 47.1074L108.296 47.1075L108.303 47.1015C114.15 41.7577 121.796 38.8133 129.717 38.8551H129.719L129.854 38.8551L129.857 38.8551C137.828 38.8065 145.53 41.728 151.463 47.05C155.477 50.6677 158.507 55.245 160.27 60.3532L160.27 60.3532L160.272 60.3596C161.501 63.7708 162.122 67.3714 162.107 70.9973C162.086 74.6209 161.475 78.2168 160.297 81.6436C158.475 86.7495 155.411 91.3219 151.382 94.949C146.269 99.5406 139.846 102.416 133.016 103.171H126.447C119.704 102.504 113.348 99.7096 108.299 95.1912Z" fill="white" stroke="white"/>
<path d="M291.526 81.6313L291.526 81.6312L291.522 81.644C289.78 86.761 286.747 91.342 282.717 94.9441L282.715 94.9462C277.65 99.5302 271.273 102.406 264.484 103.167H257.784C250.986 102.411 244.599 99.5353 239.527 94.9461L239.527 94.9461L239.523 94.9426C235.462 91.3459 232.393 86.7661 230.611 81.6424C229.445 78.2117 228.834 74.6169 228.801 70.9935C228.803 67.3011 229.451 63.6374 230.716 60.1685L230.716 60.1685L230.719 60.1602C232.482 55.0519 235.512 50.4746 239.526 46.8568L239.526 46.8568L239.528 46.8546C245.41 41.482 253.087 38.5022 261.053 38.5L261.054 38.5C269.062 38.4921 276.786 41.4715 282.714 46.8555L282.716 46.8568C286.73 50.4746 289.76 55.0519 291.523 60.1602L291.522 60.1603L291.526 60.1702C292.804 63.6352 293.453 67.3008 293.441 70.9941L293.941 70.9957L293.441 70.9952C293.437 74.6259 292.789 78.2271 291.526 81.6313Z" fill="white" stroke="white"/>
</g>
<defs>
<clipPath id="clip0_321_36">
<rect width="259" height="256" fill="white" transform="translate(41 38)"/>
</clipPath>
</defs>
</svg>
