<?xml version="1.0" standalone="no"?>
<!DOCTYPE svg PUBLIC "-//W3C//DTD SVG 20010904//EN"
 "http://www.w3.org/TR/2001/REC-SVG-20010904/DTD/svg10.dtd">
<svg version="1.0" xmlns="http://www.w3.org/2000/svg"
 width="700.000000pt" height="700.000000pt" viewBox="0 0 700.000000 700.000000"
 preserveAspectRatio="xMidYMid meet">
<metadata>
Created by potrace 1.14, written by Peter Selinger 2001-2017
</metadata>
<g transform="translate(0.000000,700.000000) scale(0.100000,-0.100000)"
fill="#000000" stroke="none">
<path d="M3215 6989 c-457 -42 -876 -160 -1275 -359 -348 -173 -608 -359 -888
-634 -588 -577 -934 -1291 -1034 -2131 -17 -142 -16 -585 0 -730 98 -837 446
-1555 1034 -2131 354 -348 744 -598 1204 -774 733 -280 1561 -303 2305 -64
441 141 847 366 1194 659 131 111 342 324 447 451 382 463 647 1043 747 1634
36 214 46 332 46 590 0 258 -10 376 -46 590 -103 608 -374 1192 -774 1665
-120 141 -352 369 -482 472 -532 423 -1127 670 -1813 753 -119 15 -545 21
-665 9z m-564 -1489 c83 -16 174 -63 238 -125 103 -99 146 -208 139 -360 -3
-83 -8 -101 -42 -169 -163 -331 -611 -357 -807 -47 -210 331 88 774 472 701z
m1877 -5 c254 -60 413 -318 348 -562 -24 -89 -57 -145 -125 -214 -103 -103
-218 -147 -356 -136 -268 20 -461 260 -424 527 31 221 226 392 454 398 22 1
68 -5 103 -13z m-1713 -1249 c235 -52 432 -156 599 -316 l85 -81 63 62 c341
337 846 447 1298 284 378 -137 680 -469 779 -857 37 -142 41 -237 41 -895 l0
-643 -314 0 -315 0 -3 663 c-4 586 -6 669 -21 722 -63 223 -237 396 -452 450
-126 32 -299 13 -413 -44 -173 -88 -286 -226 -333 -409 -18 -71 -19 -115 -19
-729 l0 -653 -310 0 -309 0 -3 678 c-3 669 -3 678 -25 742 -65 190 -210 338
-393 401 -89 30 -251 38 -340 15 -222 -56 -400 -232 -455 -451 -13 -50 -15
-164 -15 -722 l0 -663 -320 0 -320 0 0 663 c0 729 3 779 60 949 107 319 335
581 638 733 93 46 225 89 322 105 41 6 82 13 90 15 36 9 322 -5 385 -19z"/>
</g>
</svg>
